<svg width="64" height="48" viewBox="0 0 64 48" fill="none" xmlns="http://www.w3.org/2000/svg">
<rect width="64" height="48" rx="8" fill="url(#paint0_linear)"/>
<path d="M37.7206 25.6256C37.04 25.2485 36.5368 24.6169 36.3211 23.8693C36.0493 22.9336 35.4811 22.1114 34.7019 21.5263C33.9227 20.9413 32.9747 20.6249 32.0003 20.6248C31.0259 20.6248 30.0778 20.941 29.2985 21.526C28.5193 22.111 27.9509 22.9331 27.679 23.8688C27.4634 24.6166 26.9601 25.2484 26.2793 25.6256C25.3495 26.1316 24.6498 26.9757 24.3249 27.9832C24 28.9907 24.0748 30.0845 24.5338 31.0384C24.9929 31.9923 25.801 32.7332 26.791 33.1079C27.7811 33.4827 28.8773 33.4625 29.8528 33.0516C31.2283 32.4853 32.7717 32.4853 34.1472 33.0516C35.1227 33.4625 36.2189 33.4827 37.209 33.1079C38.199 32.7332 39.0071 31.9923 39.4662 31.0384C39.9252 30.0845 40 28.9907 39.6751 27.9832C39.3502 26.9757 38.6505 26.1316 37.7207 25.6256H37.7206ZM35.75 31.125C35.4988 31.1256 35.25 31.0753 35.0188 30.9773C35.0145 30.9755 35.0103 30.9737 35.0061 30.972C33.0808 30.1772 30.9192 30.1772 28.9939 30.972L28.9813 30.9773C28.5376 31.1648 28.0386 31.1744 27.588 31.004C27.1373 30.8336 26.7695 30.4963 26.5608 30.0621C26.352 29.6279 26.3184 29.13 26.4668 28.6716C26.6153 28.2133 26.9344 27.8296 27.3581 27.6002L27.3681 27.5946C27.9634 27.2658 28.4881 26.823 28.9122 26.2914C29.3363 25.7598 29.6515 25.1499 29.8397 24.4964C29.9758 24.0287 30.2601 23.6178 30.6497 23.3255C31.0393 23.0332 31.5132 22.8751 32.0003 22.8752C32.4874 22.8752 32.9613 23.0334 33.3509 23.3258C33.7404 23.6182 34.0245 24.0292 34.1606 24.4969C34.3488 25.1503 34.664 25.7601 35.088 26.2917C35.512 26.8232 36.0367 27.266 36.6319 27.5947L36.6419 27.6002C37.0089 27.7987 37.2992 28.114 37.4668 28.4961C37.6345 28.8781 37.67 29.3052 37.5676 29.7097C37.4653 30.1142 37.2309 30.473 36.9017 30.7293C36.5725 30.9857 36.1672 31.1249 35.75 31.125ZM41.75 21.75C41.75 22.195 41.618 22.63 41.3708 23C41.1236 23.37 40.7722 23.6584 40.361 23.8287C39.9499 23.999 39.4975 24.0436 39.061 23.9568C38.6246 23.87 38.2237 23.6557 37.909 23.341C37.5943 23.0263 37.3801 22.6254 37.2932 22.189C37.2064 21.7525 37.251 21.3001 37.4213 20.889C37.5916 20.4778 37.88 20.1264 38.25 19.8792C38.62 19.632 39.055 19.5 39.5 19.5C40.0967 19.5 40.669 19.7371 41.091 20.159C41.5129 20.581 41.75 21.1533 41.75 21.75ZM24.5 24C24.055 24 23.62 23.868 23.25 23.6208C22.88 23.3736 22.5916 23.0222 22.4213 22.611C22.251 22.1999 22.2064 21.7475 22.2932 21.311C22.3801 20.8746 22.5943 20.4737 22.909 20.159C23.2237 19.8443 23.6246 19.6301 24.061 19.5432C24.4975 19.4564 24.9499 19.501 25.361 19.6713C25.7722 19.8416 26.1236 20.13 26.3708 20.5C26.618 20.87 26.75 21.305 26.75 21.75C26.75 22.3467 26.5129 22.919 26.091 23.341C25.669 23.763 25.0967 24 24.5 24ZM26.75 17.25C26.75 16.805 26.882 16.37 27.1292 16C27.3764 15.63 27.7278 15.3416 28.139 15.1713C28.5501 15.001 29.0025 14.9564 29.439 15.0432C29.8754 15.1301 30.2763 15.3443 30.591 15.659C30.9057 15.9737 31.12 16.3746 31.2068 16.811C31.2936 17.2475 31.249 17.6999 31.0787 18.111C30.9084 18.5222 30.62 18.8736 30.25 19.1208C29.88 19.368 29.445 19.5 29 19.5C28.4033 19.5 27.831 19.2629 27.409 18.841C26.9871 18.419 26.75 17.8467 26.75 17.25ZM32.75 17.25C32.75 16.805 32.882 16.37 33.1292 16C33.3764 15.63 33.7278 15.3416 34.139 15.1713C34.5501 15.001 35.0025 14.9564 35.439 15.0432C35.8754 15.1301 36.2763 15.3443 36.591 15.659C36.9057 15.9737 37.12 16.3746 37.2068 16.811C37.2936 17.2475 37.249 17.6999 37.0787 18.111C36.9084 18.5222 36.62 18.8736 36.25 19.1208C35.88 19.368 35.445 19.5 35 19.5C34.4033 19.5 33.831 19.2629 33.409 18.841C32.9871 18.419 32.75 17.8467 32.75 17.25Z" fill="white"/>
<defs>
<linearGradient id="paint0_linear" x1="6.36667" y1="3.5603" x2="33.3985" y2="92.6596" gradientUnits="userSpaceOnUse">
<stop stop-color="#4E9FE2"/>
<stop offset="1" stop-color="#984EE2"/>
</linearGradient>
</defs>
</svg>
