<svg width="22" height="21" viewBox="0 0 22 21" fill="none" xmlns="http://www.w3.org/2000/svg">
<path d="M20.9393 9.82566L16.6985 13.3552L18.0447 18.8C18.1238 19.1042 18.1092 19.4251 18.0028 19.7209C17.8964 20.0166 17.7032 20.2734 17.4485 20.4575C17.2024 20.637 16.9078 20.7381 16.6034 20.7475C16.2989 20.7569 15.9986 20.6742 15.7419 20.5102L11.0135 17.5146C11.0004 17.5073 10.9944 17.5102 10.9885 17.5146L6.59401 20.2986C6.31086 20.4787 5.98003 20.5695 5.64457 20.5591C5.30912 20.5486 4.98458 20.4374 4.7132 20.24C4.43208 20.0367 4.21889 19.7533 4.10153 19.4268C3.98417 19.1004 3.96811 18.7461 4.05545 18.4103L5.32257 13.4262L1.06276 9.82566C0.821451 9.62458 0.646284 9.3555 0.560067 9.05346C0.473851 8.75142 0.480582 8.43042 0.579383 8.13225C0.673021 7.83827 0.853093 7.57934 1.09611 7.38924C1.33912 7.19914 1.63379 7.08671 1.94166 7.0666L7.47882 6.70697L9.57498 1.47601C9.68649 1.18888 9.88206 0.942087 10.1361 0.767899C10.3901 0.59371 10.6908 0.500235 10.9989 0.499695H11.0003C11.3088 0.49974 11.61 0.592979 11.8646 0.767193C12.1192 0.941408 12.3153 1.18847 12.427 1.47601L14.4924 6.67697L20.0603 7.0666C20.3682 7.08669 20.6628 7.19912 20.9059 7.38922C21.1489 7.57932 21.329 7.83826 21.4226 8.13225C21.5214 8.43042 21.5282 8.75142 21.4419 9.05346C21.3557 9.3555 21.1806 9.62458 20.9393 9.82566Z" fill="#4E9FE2"/>
</svg>
