<svg width="64" height="48" viewBox="0 0 64 48" fill="none" xmlns="http://www.w3.org/2000/svg">
<rect width="64" height="48" rx="8" fill="url(#paint0_linear)"/>
<path d="M30.25 16.125C30.25 16.5891 30.4344 17.0342 30.7626 17.3624C31.0908 17.6906 31.5359 17.875 32 17.875C32.4641 17.875 32.9092 17.6906 33.2374 17.3624C33.5656 17.0342 33.75 16.5891 33.75 16.125C33.75 15.6609 33.5656 15.2158 33.2374 14.8876C32.9092 14.5594 32.4641 14.375 32 14.375C31.5359 14.375 31.0908 14.5594 30.7626 14.8876C30.4344 15.2158 30.25 15.6609 30.25 16.125ZM32.875 20.7188H31.125C31.0047 20.7188 30.9062 20.8172 30.9062 20.9375V33.625C30.9062 33.7453 31.0047 33.8438 31.125 33.8438H32.875C32.9953 33.8438 33.0938 33.7453 33.0938 33.625V20.9375C33.0938 20.8172 32.9953 20.7188 32.875 20.7188Z" fill="white"/>
<defs>
<linearGradient id="paint0_linear" x1="6.36667" y1="3.5603" x2="33.3985" y2="92.6596" gradientUnits="userSpaceOnUse">
<stop stop-color="#4E9FE2"/>
<stop offset="1" stop-color="#984EE2"/>
</linearGradient>
</defs>
</svg>
