<svg width="140" height="36" viewBox="0 0 140 36" fill="none" xmlns="http://www.w3.org/2000/svg">
<path d="M61.7 32.0001V2.83008H69C73.59 2.83008 75.8399 5.37008 75.8399 10.0501V24.8101C75.7999 29.4801 73.55 32.0001 69 32.0001H61.7ZM68.8799 7.00008H66.29V27.8601H68.8799C70.3399 27.8601 71.2099 27.1101 71.2099 25.0201V9.84008C71.2099 7.75008 70.3399 7.00008 68.8799 7.00008Z" fill="#FFAD01"/>
<path d="M118.38 19.93V15.76H124.81V25C124.81 29.67 122.47 32.34 117.97 32.34C113.47 32.34 111.12 29.67 111.12 25V9.84C111.12 5.16 113.46 2.5 117.97 2.5C122.48 2.5 124.81 5.16 124.81 9.84V12.67H120.47V9.54C120.47 7.46 119.55 6.67 118.09 6.67C116.63 6.67 115.71 7.46 115.71 9.54V25.31C115.71 27.4 116.63 28.15 118.09 28.15C119.55 28.15 120.47 27.4 120.47 25.31V19.93H118.38ZM126.18 9.84C126.18 5.16 128.47 2.5 132.93 2.5C137.39 2.5 139.69 5.16 139.69 9.84V10.75H135.35V9.54C135.35 7.46 134.52 6.67 133.06 6.67C131.6 6.67 130.77 7.46 130.77 9.54C130.77 15.54 139.77 16.68 139.77 25.02C139.77 29.69 137.44 32.36 132.93 32.36C128.42 32.36 126.09 29.69 126.09 25.02V23.23H130.43V25.31C130.43 27.4 131.35 28.15 132.81 28.15C134.27 28.15 135.19 27.4 135.19 25.31C135.15 19.31 126.18 18.18 126.18 9.84Z" fill="#FFAD01"/>
<path d="M92.98 33.5401C101.601 33.5401 108.59 26.5512 108.59 17.9301C108.59 9.3089 101.601 2.32007 92.98 2.32007C84.3588 2.32007 77.37 9.3089 77.37 17.9301C77.37 26.5512 84.3588 33.5401 92.98 33.5401Z" fill="#FFAD01"/>
<path d="M88.35 32.84C85.2137 31.8697 82.4629 29.9358 80.4883 27.3131C78.5137 24.6905 77.4156 21.5123 77.35 18.23C78.8447 17.8755 80.2332 17.1693 81.4 16.17C83.46 13.97 83.53 13.83 84.7 10.85C85.356 9.01453 86.6519 7.47716 88.35 6.52002L88.78 12.29C90.78 12.41 92.18 12.51 92.97 12.58C94.2122 12.7458 95.3669 13.3109 96.26 14.19C96.9514 14.8589 97.4194 15.7251 97.6 16.67C97.6516 16.8854 97.7666 17.0805 97.93 17.23C98.124 17.3158 98.3295 17.3731 98.54 17.4L104.64 18.55C104.813 18.621 104.951 18.7575 105.024 18.9298C105.097 19.1021 105.099 19.2962 105.03 19.47C104.842 20.6443 104.506 21.79 104.03 22.88C103.03 24.69 100.23 25.56 99.18 25.66C98.53 25.72 96.18 25.76 91.98 25.66C91.24 25.66 90.9 25.99 90.39 26.66C89.0573 28.4441 88.3413 30.6132 88.35 32.84Z" fill="white"/>
<path d="M103.08 18.25L104.67 18.55C104.843 18.621 104.981 18.7575 105.054 18.9298C105.127 19.1021 105.129 19.2962 105.06 19.47C104.93 19.99 104.83 20.47 104.74 20.87C104.102 20.8634 103.475 20.6948 102.92 20.38C102.81 20.288 102.725 20.1708 102.671 20.0384C102.617 19.9059 102.596 19.7623 102.61 19.62C102.648 19.1309 102.81 18.6596 103.08 18.25Z" fill="#535A6A"/>
<path d="M93.42 17.4701C94.138 17.4701 94.72 16.8881 94.72 16.1701C94.72 15.4521 94.138 14.8701 93.42 14.8701C92.702 14.8701 92.12 15.4521 92.12 16.1701C92.12 16.8881 92.702 17.4701 93.42 17.4701Z" fill="#535A6A"/>
<path d="M9.34 21.14H13.68V25C13.68 29.67 11.35 32.34 6.84 32.34C2.33 32.34 0 29.69 0 25V9.84C0 5.16 2.34 2.5 6.84 2.5C11.34 2.5 13.68 5.16 13.68 9.84V12.67H9.34V9.54C9.34 7.46 8.43 6.67 6.97 6.67C5.51 6.67 4.59 7.46 4.59 9.54V25.31C4.59 27.4 5.51 28.15 6.97 28.15C8.43 28.15 9.34 27.4 9.34 25.31V21.14ZM19.68 9.54V25.31C19.68 27.4 20.6 28.19 22.06 28.19C23.52 28.19 24.44 27.4 24.44 25.31V9.54C24.44 7.46 23.52 6.67 22.06 6.67C20.6 6.67 19.68 7.46 19.68 9.54ZM15.09 25V9.84C15.09 5.16 17.56 2.5 22.09 2.5C26.62 2.5 29.09 5.16 29.09 9.84V25C29.09 29.67 26.63 32.34 22.09 32.34C17.55 32.34 15.09 29.69 15.09 25ZM31 32V2.83H35.59V32H31ZM47.7 32L42 10.88V32H37.86V2.83H43.62L48.33 20.31V2.83H52.42V32H47.7Z" fill="white"/>
<path d="M4.23999 0H7.87999V5.26H4.23999V0ZM4.23999 30.78H7.87999V36H4.23999V30.78Z" fill="white"/>
</svg>
