<svg width="412" height="81" viewBox="0 0 412 81" fill="none" xmlns="http://www.w3.org/2000/svg">
<path d="M19.5383 8.77178C20.4873 8.77178 21.2591 7.99775 21.2591 7.04871C21.2591 6.09968 20.4873 5.32788 19.5383 5.32788C18.5892 5.32788 17.8152 6.09968 17.8152 7.04871C17.8152 7.99775 18.5892 8.77178 19.5383 8.77178Z" fill="white"/>
<path d="M0.414307 12.3756H13.3508V79.8737H25.7264V12.3756H38.6629V1.12402H0.414307V12.3756ZM16.7072 6.76887C16.8351 5.44965 17.8963 4.37048 19.2133 4.22465C20.9251 4.03394 22.3812 5.37337 22.3812 7.04932C22.3812 8.42464 21.3985 9.57559 20.0995 9.83809V79.8737H18.9777V9.83809C17.5889 9.55764 16.5636 8.26759 16.7072 6.76887Z" fill="white"/>
<path d="M63.1692 74.5137C63.1535 75.4628 63.9141 76.248 64.8631 76.2637H64.8923C65.8278 76.2637 66.5974 75.5121 66.6131 74.5721C66.6288 73.623 65.8705 72.8355 64.9214 72.8198H64.8923C63.9544 72.8198 63.1849 73.5737 63.1692 74.5137Z" fill="white"/>
<path d="M62.0653 0C55.9897 0 51.3388 1.72532 48.1147 5.17594C44.8885 8.62433 43.2776 13.4996 43.2776 19.7996V61.1982C43.2776 67.5004 44.8885 72.3757 48.1147 75.8241C51.3388 79.2747 55.9897 81 62.0653 81C68.1387 81 72.7897 79.2747 76.0137 75.8241C79.2377 72.3757 80.8508 67.5004 80.8508 61.1982V19.7996C80.8508 13.4996 79.2377 8.62433 76.0137 5.17594C72.7897 1.72532 68.1387 0 62.0653 0ZM68.4752 61.9857C68.4752 65.5395 67.4679 67.8728 65.4531 68.9856V71.7564C66.7724 72.0212 67.7595 73.1991 67.7349 74.5901C67.7079 76.1426 66.4381 77.3856 64.8922 77.3856H64.8429C63.2746 77.3587 62.0227 76.0619 62.0474 74.4936C62.0721 73.134 63.0503 72.0122 64.3314 71.7542V69.4478C63.6583 69.6497 62.9022 69.7484 62.0653 69.7484C57.7891 69.7484 55.6509 67.1616 55.6509 61.9857V19.0121C55.6509 15.8038 56.4721 13.5894 58.1166 12.3711C59.124 11.6218 60.441 11.2493 62.0653 11.2493C62.9022 11.2493 63.6583 11.348 64.3314 11.5477C64.7352 11.6666 65.1099 11.8214 65.4531 12.0121C67.4679 13.1249 68.4752 15.4583 68.4752 19.0121V61.9857Z" fill="white"/>
<path d="M93.2358 31.3002C93.2358 32.2493 94.0076 33.021 94.9567 33.021C95.9057 33.021 96.6797 32.2493 96.6797 31.3002C96.6797 30.3489 95.9057 29.5771 94.9567 29.5771C94.0076 29.5771 93.2358 30.3489 93.2358 31.3002Z" fill="white"/>
<path d="M129.674 1.12402H117.074L101.548 34.9864V1.12402H95.5174V28.5114C96.8187 28.7739 97.8014 29.9226 97.8014 31.3002C97.8014 32.9739 96.3453 34.3156 94.6312 34.1249C93.3142 33.979 92.253 32.8999 92.1274 31.5806C91.9815 30.0819 93.0068 28.7896 94.3956 28.5114V1.12402H89.1748V79.8737H101.548V55.1248L106.61 45.2238L116.962 79.8737H129.898L114.936 30.037L129.674 1.12402ZM102.423 43.3437C101.048 43.3437 99.8969 42.361 99.6366 41.0598H95.5174V79.8737H94.3956V39.938H99.6366C99.9148 38.5514 101.207 37.5239 102.706 37.6697C104.025 37.7976 105.102 38.8566 105.25 40.1735C105.441 41.8876 104.099 43.3437 102.423 43.3437Z" fill="white"/>
<path d="M102.423 38.7778C101.474 38.7778 100.702 39.5496 100.702 40.4987C100.702 41.4477 101.474 42.2217 102.423 42.2217C103.372 42.2217 104.146 41.4477 104.146 40.4987C104.146 39.5496 103.372 38.7778 102.423 38.7778Z" fill="white"/>
<path d="M140.762 53.3793C140.199 53.2671 139.685 52.9889 139.279 52.5693C138.752 52.0241 138.467 51.304 138.48 50.5456C138.507 48.9931 139.777 47.7501 141.323 47.7501C141.336 47.7501 141.348 47.7501 141.361 47.7501C142.918 47.7703 144.168 49.0357 144.168 50.5927V50.6421C144.145 52.0017 143.167 53.1235 141.886 53.3815V75.9452H169.498V68.6266H148.123V44.4363H165.112V33.187H148.123V12.3756H169.498V1.12402H142.498V26.8736C143.818 27.1383 144.805 28.3162 144.782 29.7095C144.756 31.2598 143.486 32.505 141.94 32.505H141.913C140.657 32.4915 139.528 31.6681 139.203 30.4566C138.738 28.738 139.835 27.1855 141.377 26.8736V1.12402H135.748V79.8737H169.495V77.067H140.762V53.3793Z" fill="white"/>
<path d="M140.217 29.631C140.208 30.091 140.38 30.5262 140.699 30.856C141.02 31.1881 141.448 31.3743 141.908 31.381C141.92 31.3833 141.928 31.3833 141.94 31.3833C142.875 31.3833 143.645 30.6294 143.661 29.6894C143.676 28.7717 142.967 28.0089 142.061 27.9438H141.796C141.399 27.9775 141.031 28.1435 140.742 28.4217C140.41 28.7426 140.223 29.1711 140.217 29.631Z" fill="white"/>
<path d="M143.045 50.6221C143.061 49.673 142.303 48.8878 141.354 48.8721C141.345 48.8721 141.334 48.8721 141.325 48.8721C140.389 48.8721 139.62 49.6259 139.604 50.566C139.595 51.0259 139.768 51.4612 140.088 51.791C140.409 52.1208 140.838 52.3092 141.298 52.316C141.307 52.316 141.318 52.316 141.327 52.316C142.26 52.3137 143.03 51.5621 143.045 50.6221Z" fill="white"/>
<path d="M190.208 9.70603C190.166 8.75924 189.358 8.02334 188.409 8.06597C188.398 8.06821 188.389 8.06821 188.38 8.06821C187.444 8.12879 186.724 8.92975 186.769 9.86757C186.814 10.8166 187.621 11.5525 188.568 11.5076C188.579 11.5076 188.588 11.5054 188.6 11.5054C189.046 11.4762 189.459 11.2788 189.762 10.9467C190.071 10.6057 190.231 10.166 190.208 9.70603Z" fill="white"/>
<path d="M203.92 48.2617L191.432 1.12402H176.133V79.8737H187.158V22.3864L202.457 79.8737H214.945V1.12402H203.92V48.2617ZM207.712 79.8737L188.666 12.6246C188.659 12.6246 188.65 12.6269 188.641 12.6269C187.378 12.6942 186.194 11.9269 185.799 10.7243C185.175 8.83521 186.528 7.04034 188.354 6.94611C189.922 6.87207 191.255 8.0881 191.329 9.65412C191.365 10.4124 191.102 11.1394 190.591 11.7025C190.349 11.9672 190.064 12.1804 189.75 12.3352L208.878 79.8737H207.712Z" fill="white"/>
<path d="M260.809 8.46708C261.257 8.47382 261.704 8.3033 262.034 7.98472C262.366 7.66388 262.552 7.23536 262.559 6.77543C262.568 6.3155 262.395 5.88024 262.076 5.54819C261.755 5.21838 261.327 5.03216 260.867 5.02543C260.856 5.02319 260.847 5.02319 260.838 5.02319C260.003 5.02319 259.303 5.62223 259.148 6.41421V7.0828C259.211 7.40363 259.366 7.70202 259.599 7.94209C259.918 8.27414 260.349 8.46035 260.809 8.46708Z" fill="#FEAD03"/>
<path d="M261.064 1.12402H242.167V79.8737H261.064C273.366 79.8737 279.518 73.3875 279.518 60.4106V20.5871C279.518 7.61246 273.366 1.12402 261.064 1.12402ZM248.588 79.8737H247.466V6.18554H258.051C258.314 4.88202 259.465 3.90158 260.836 3.90158C260.854 3.90158 260.871 3.90157 260.889 3.90382C261.311 3.9083 261.733 3.99356 262.105 4.18876C263.124 4.72722 263.698 5.72112 263.68 6.7958C263.667 7.55413 263.36 8.26309 262.814 8.79034C262.28 9.30636 261.58 9.5913 260.838 9.5913C260.82 9.5913 260.8 9.58905 260.779 9.58905C260.405 9.58456 260.03 9.52175 259.691 9.36245C258.794 8.93842 258.224 8.1756 258.051 7.30733H248.588V79.8737ZM267.14 60.9738C267.14 66.0757 265.04 68.6244 260.84 68.6244H254.54V12.3756H260.84C265.04 12.3756 267.14 14.9265 267.14 20.0239V60.9738Z" fill="#FEAD03"/>
<path d="M399.504 39.0835H399.475C399.027 39.0835 398.603 39.254 398.28 39.5659C397.947 39.8867 397.761 40.3152 397.754 40.7752C397.746 41.2351 397.918 41.6703 398.237 42.0024C398.558 42.3322 398.986 42.5184 399.446 42.5274C399.899 42.5364 400.341 42.3636 400.673 42.0428C401.003 41.7242 401.189 41.2934 401.198 40.8335C401.205 40.3736 401.035 39.9383 400.714 39.6085C400.395 39.2764 399.964 39.0902 399.504 39.0835Z" fill="#FEAD03"/>
<path d="M411.587 26.5483V19.7996C411.587 13.4256 410.014 8.53234 406.864 5.11761C403.714 1.70736 399.137 0 393.138 0C387.138 0 382.561 1.70736 379.411 5.11761C376.264 8.53234 374.689 13.4256 374.689 19.7996V61.1982C374.689 67.5744 376.264 72.4677 379.411 75.8801C382.561 79.2949 387.138 81 393.138 81C399.137 81 403.714 79.2949 406.864 75.8801C406.884 75.8577 406.904 75.8353 406.924 75.8128C407.326 75.3753 407.699 74.9109 408.046 74.424C410.409 71.126 411.587 66.7174 411.587 61.1982V35.4374H393.701V46.6867H399.889V62.0978C399.889 67.1997 397.75 69.7484 393.476 69.7484C389.2 69.7484 387.064 67.1997 387.064 62.0978V19.0121C387.064 13.8384 389.2 11.2493 393.476 11.2493C397.75 11.2493 399.889 13.8384 399.889 19.0121V26.5483H411.587ZM399.478 43.6489H399.429C398.944 43.6421 398.466 43.521 398.051 43.2719C396.871 42.563 396.357 41.2101 396.777 39.8841C396.824 39.7405 396.884 39.6014 396.956 39.4691C397.504 38.4886 398.473 37.9457 399.525 37.9614C400.283 37.9748 400.992 38.2822 401.522 38.8274C401.906 39.2245 402.157 39.7136 402.262 40.2431H408.046V74.424C407.699 74.9109 407.326 75.3753 406.924 75.8128V41.3649H402.262C402.15 41.928 401.874 42.4418 401.452 42.8501C400.918 43.3662 400.218 43.6489 399.478 43.6489Z" fill="#FEAD03"/>
<path d="M327.102 79.8714C348.847 79.8714 366.474 62.2436 366.474 40.4988C366.474 18.754 348.847 1.12622 327.102 1.12622C305.357 1.12622 287.729 18.754 287.729 40.4988C287.729 62.2436 305.357 79.8714 327.102 79.8714Z" fill="white"/>
<path d="M352.479 41.4031C348.73 40.6448 344.994 39.8057 341.225 39.173C339.895 38.9486 339.125 38.3944 338.791 37.1695C336.852 30.0708 331.712 27.3044 324.858 26.849C322.713 26.7076 320.571 26.5214 318.424 26.4676C317.001 26.4317 316.479 25.9112 316.413 24.4259C316.234 20.3448 315.859 16.275 315.541 11.9135C312.357 13.3695 310.129 15.5907 308.581 18.3144C306.93 21.2176 305.804 24.4147 304.325 27.4233C300.931 34.3313 295.799 39.2134 287.931 41.0508C287.449 37.3714 288.007 33.8198 289.046 30.3804C293.809 14.5945 304.262 4.75419 320.486 1.76574C340.844 -1.98553 361.144 11.099 365.631 32.7631C369.55 51.6899 359.109 69.6071 342.657 76.6453C334.304 80.217 325.646 80.8565 316.815 78.4177C315.803 78.1372 315.319 77.7289 315.395 76.634C315.794 70.8815 317.695 65.719 321.679 61.5078C322.485 60.6575 324.012 60.1168 325.224 60.0854C330.265 59.9553 335.313 60.036 340.359 60.1123C344.705 60.1796 348.553 58.746 352.044 56.305C354.931 54.288 356.111 51.2367 356.726 47.9095C358.499 42.4217 358.11 41.8249 352.479 41.4031Z" fill="#FEAD03"/>
<path d="M328.303 39.2422C326.521 39.2803 325.007 37.8916 324.978 36.1864C324.944 34.4006 326.283 32.9557 328.051 32.8704C329.956 32.7784 331.383 34.1156 331.432 36.0384C331.477 37.8153 330.124 39.2018 328.303 39.2422Z" fill="#575E6D"/>
<path d="M352.479 41.4033C358.111 41.8274 358.501 42.4241 356.724 47.9097C356.459 47.8873 356.19 47.8828 355.928 47.8402C351.147 47.0482 350.527 45.886 352.479 41.4033Z" fill="#595F6D"/>
<path d="M261.065 1.12622H242.165V79.8759H261.065C273.364 79.8759 279.516 73.3897 279.516 60.4128V20.587C279.516 7.61466 273.366 1.12622 261.065 1.12622ZM267.14 60.9737C267.14 66.0756 265.04 68.6244 260.84 68.6244H254.54V12.3755H260.84C265.04 12.3755 267.14 14.9265 267.14 20.0261V60.9737Z" fill="#FEAD03"/>
<path d="M411.587 26.5505V19.8018C411.587 13.4278 410.012 8.53458 406.864 5.11985C403.714 1.70737 399.137 0 393.138 0C387.136 0 382.561 1.70736 379.411 5.11761C376.261 8.53234 374.689 13.4256 374.689 19.7996V61.1982C374.689 67.5744 376.261 72.4677 379.411 75.8801C382.561 79.2949 387.136 80.9978 393.138 80.9978C399.137 80.9978 403.714 79.2926 406.864 75.8801C410.014 72.4677 411.587 67.5744 411.587 61.1982V35.4374H393.701V46.6867H399.886V62.0978C399.886 67.1997 397.748 69.7484 393.474 69.7484C389.198 69.7484 387.062 67.1997 387.062 62.0978V19.0121C387.062 13.8384 389.198 11.2493 393.474 11.2493C397.748 11.2493 399.886 13.8362 399.886 19.0121V26.5483H411.587V26.5505Z" fill="#FEAD03"/>
<path d="M327.102 79.8741C348.847 79.8741 366.474 62.2463 366.474 40.5015C366.474 18.7567 348.847 1.12891 327.102 1.12891C305.357 1.12891 287.729 18.7567 287.729 40.5015C287.729 62.2463 305.357 79.8741 327.102 79.8741Z" fill="white"/>
<path d="M352.477 41.4032C348.728 40.6448 344.992 39.8057 341.223 39.173C339.893 38.9487 339.123 38.3945 338.789 37.1695C336.85 30.0708 331.71 27.3045 324.858 26.8491C322.713 26.7077 320.571 26.5215 318.424 26.4676C317.001 26.4317 316.479 25.9112 316.413 24.426C316.234 20.3449 315.859 16.2751 315.541 11.9135C312.357 13.3696 310.129 15.5908 308.581 18.3145C306.93 21.2177 305.804 24.4148 304.325 27.4234C300.931 34.3292 295.799 39.2134 287.931 41.0509C287.449 37.3714 288.007 33.8199 289.046 30.3804C293.809 14.5946 304.26 4.75652 320.483 1.76582C340.839 -1.98544 361.141 11.0969 365.629 32.7609C369.548 51.6877 359.107 69.605 342.654 76.6431C334.304 80.2149 325.644 80.8543 316.815 78.4155C315.803 78.1351 315.319 77.7267 315.395 76.6319C315.794 70.8793 317.695 65.7169 321.679 61.5056C322.485 60.6553 324.012 60.1146 325.224 60.0832C330.265 59.9531 335.313 60.0339 340.357 60.1101C344.703 60.1774 348.551 58.7438 352.042 56.3028C354.929 54.2858 356.109 51.2345 356.724 47.9095C358.499 42.424 358.108 41.8272 352.477 41.4032Z" fill="#FEAD03"/>
<path d="M328.303 39.2449C326.521 39.283 325.007 37.8943 324.978 36.1891C324.944 34.4032 326.283 32.9584 328.051 32.8731C329.956 32.7811 331.383 34.1183 331.432 36.0411C331.477 37.8157 330.122 39.2045 328.303 39.2449Z" fill="#575E6D"/>
<path d="M352.477 41.4033C358.108 41.8274 358.499 42.4241 356.722 47.9097C356.457 47.8873 356.188 47.8828 355.925 47.8402C351.146 47.0482 350.525 45.8882 352.477 41.4033Z" fill="#595F6D"/>
</svg>
