<svg width="55" height="70" viewBox="0 0 55 70" fill="none" xmlns="http://www.w3.org/2000/svg">
<path d="M21.581 16.4021C20.8977 16.2862 20.8688 16.2725 21.1904 16.2186C21.8068 16.1148 23.262 16.2561 24.265 16.5168C26.6062 17.1252 28.7366 18.6838 31.0107 21.4517L31.6149 22.1871L32.4791 22.0352C36.1201 21.3956 39.8241 21.9039 42.9221 23.4684C43.7744 23.8989 45.1182 24.7558 45.286 24.976C45.3396 25.0461 45.4379 25.4979 45.5043 25.9798C45.7344 27.6474 45.6193 28.9256 45.1527 29.8802C44.8988 30.3998 44.8847 30.5644 45.0554 31.009C45.1916 31.3639 45.5714 31.6264 45.9476 31.6259C46.7175 31.6247 47.5462 30.2641 47.9301 28.371L48.0826 27.6191L48.3848 27.9931C50.0421 30.0458 51.3437 32.8452 51.5673 34.8378L51.6255 35.3572L51.347 34.885C50.8675 34.0723 50.3858 33.519 49.769 33.0728C48.6571 32.2685 47.4814 31.9948 44.3678 31.8154C41.5556 31.6534 39.9641 31.3909 38.3859 30.8282C35.7009 29.8712 34.3473 28.5966 31.1577 24.0218C29.7411 21.9899 28.8654 20.8656 27.9944 19.9603C26.0152 17.9031 24.0704 16.8242 21.581 16.4021Z" fill="white"/>
<path d="M45.9204 20.9388C45.9912 19.5773 46.1601 18.679 46.4997 17.859C46.6341 17.5343 46.76 17.2686 46.7795 17.2686C46.7989 17.2686 46.7405 17.5082 46.6496 17.801C46.4027 18.5971 46.3622 19.6857 46.5322 20.9525C46.7481 22.5596 46.8708 22.7915 48.4247 24.5277C49.1536 25.342 50.0013 26.369 50.3085 26.8099L50.8673 27.6117L50.3085 27.0387C49.6252 26.338 48.0537 24.9715 47.7065 24.7761C47.4738 24.6452 47.4392 24.6474 47.2955 24.8036C47.1633 24.9476 47.1354 25.1639 47.117 26.1865C47.0885 27.7802 46.8898 28.8033 46.4102 29.8261C46.1508 30.3793 46.1099 30.2613 46.3447 29.6369C46.5199 29.1706 46.5377 28.9657 46.5364 27.4227C46.5337 24.3228 46.197 23.5775 44.2228 22.3008C43.7226 21.9774 42.8985 21.5109 42.3916 21.2642C41.8845 21.0175 41.4817 20.8026 41.4964 20.7866C41.5523 20.7257 43.4777 21.3401 44.2526 21.6659C45.4053 22.1507 45.5956 22.2135 45.7356 22.155C45.8294 22.1159 45.8748 21.817 45.9204 20.9388Z" fill="white"/>
<path d="M22.9085 26.2422C21.5211 24.1541 20.6628 20.9524 20.8485 18.559L20.9061 17.8184L21.2218 17.8814C21.815 17.9997 22.8374 18.4158 23.3163 18.7337C24.6303 19.6061 25.1991 20.7547 25.7779 23.7042C25.9474 24.568 26.1698 25.5456 26.2721 25.8767C26.4369 26.4094 27.0595 27.6538 27.5656 28.462C27.9302 29.044 27.6881 29.3198 26.8821 29.2403C25.6513 29.1188 23.9841 27.861 22.9085 26.2422Z" fill="white"/>
<path d="M44.2375 41.7833C37.7536 38.9293 35.4701 36.452 35.4701 32.2722C35.4701 31.6571 35.4895 31.1538 35.513 31.1538C35.5367 31.1538 35.7876 31.3569 36.0705 31.605C37.3853 32.7578 38.8576 33.2502 42.9336 33.9002C45.332 34.2828 46.6818 34.5918 47.9268 35.0432C51.8843 36.478 54.3328 39.3898 54.9166 43.3558C55.0863 44.5082 54.9868 46.6692 54.7116 47.8082C54.4945 48.7078 53.8319 50.3293 53.6561 50.3915C53.6073 50.4087 53.5596 50.2046 53.547 49.9268C53.4804 48.4376 52.792 46.9878 51.6359 45.9017C50.3215 44.6669 48.5554 43.6838 44.2375 41.7833Z" fill="white"/>
<path d="M39.6857 42.9688C39.6044 42.4404 39.4636 41.7655 39.3726 41.4691L39.2072 40.9302L39.5145 41.3073C39.9397 41.829 40.2757 42.4968 40.5606 43.3861C40.7779 44.0648 40.8023 44.2666 40.8007 45.3697C40.7991 46.4526 40.7719 46.6796 40.5712 47.2904C40.2547 48.2539 39.8619 48.937 39.2027 49.6702C38.0184 50.988 36.4956 51.7176 34.2983 52.0202C33.9162 52.0728 32.803 52.1614 31.8243 52.217C29.3577 52.3572 27.7343 52.647 26.2756 53.2069C26.0659 53.2875 25.8786 53.3364 25.8597 53.3156C25.8006 53.2514 26.7938 52.6041 27.6142 52.1722C28.7708 51.5631 29.9222 51.2307 32.502 50.761C33.7765 50.5289 35.0925 50.2475 35.4267 50.1355C38.5827 49.0776 40.2048 46.3478 39.6857 42.9688Z" fill="white"/>
<path d="M42.6579 48.7394C41.7965 46.7149 41.5987 44.7603 42.0706 42.9372C42.1211 42.7425 42.2023 42.583 42.2512 42.583C42.2999 42.583 42.5032 42.7032 42.7028 42.85C43.0998 43.1422 43.8959 43.6342 46.0171 44.8985C48.664 46.4761 50.1731 47.6977 51.1994 49.0934C52.0981 50.3158 52.6543 51.7078 52.9221 53.4054C53.0735 54.3671 52.9848 56.6808 52.7591 57.649C52.0475 60.7021 50.3935 63.1002 48.0343 64.4996C47.6887 64.7046 47.3785 64.873 47.3449 64.8738C47.3113 64.8744 47.4372 64.5244 47.6247 64.0957C48.4184 62.2822 48.5087 60.5181 47.9087 58.5546C47.5413 57.3522 46.7923 55.8852 45.28 53.4058C43.5216 50.5232 43.0905 49.7559 42.6579 48.7394Z" fill="white"/>
<path d="M18.304 59.6627C20.7101 57.4418 23.7038 55.864 26.431 55.3797C27.6062 55.1709 29.564 55.2538 30.6523 55.5582C32.3968 56.0464 33.9573 57.1394 34.7688 58.4419C35.562 59.7148 35.9023 60.824 36.2566 63.292C36.3963 64.2656 36.5483 65.2432 36.5943 65.4645C36.8603 66.7436 37.3781 67.766 38.0196 68.2794C39.0387 69.0947 40.7934 69.1455 42.5195 68.4094C42.8125 68.2845 43.0668 68.1981 43.0847 68.2176C43.1473 68.2855 42.2782 68.9217 41.6649 69.2565C40.8399 69.707 40.1837 69.8813 39.3119 69.8813C37.7311 69.8813 36.4185 69.002 35.3233 67.2093C35.1078 66.8565 34.6233 65.7997 34.2468 64.8611C33.0905 61.9777 32.5194 61.0993 31.1768 60.1381C30.0083 59.3016 28.5015 59.1519 27.3679 59.7595C25.8788 60.5576 25.4633 62.6379 26.5299 63.9564C26.9537 64.4803 27.7442 64.9322 28.3906 65.02C29.5998 65.1845 30.639 64.1789 30.639 62.8442C30.639 61.9776 30.3342 61.4831 29.5672 61.1047C28.5196 60.5879 27.3936 61.1919 27.399 62.2679C27.4014 62.7266 27.5841 63.0147 28.0047 63.2227C28.2746 63.3562 28.2809 63.3668 28.0607 63.3168C27.0996 63.0989 26.8744 61.8322 27.6472 60.9911C28.5751 59.9815 30.4938 60.4271 31.1527 61.8052C31.4295 62.384 31.4616 63.5368 31.2203 64.233C30.6801 65.791 29.1053 66.6103 27.5077 66.1644C26.4201 65.8608 25.9772 65.5322 24.6658 64.0555C22.3871 61.4893 21.5024 60.992 18.2172 60.4314L17.5876 60.324L18.304 59.6627Z" fill="white"/>
<path fill-rule="evenodd" clip-rule="evenodd" d="M1.12074 2.17897C8.73078 12.2763 20.4631 27.9972 21.0456 28.8774C21.5265 29.6041 21.3455 30.2575 20.5217 30.7695C20.0635 31.0543 19.1215 31.3428 18.6499 31.3428C18.1165 31.3428 17.5156 31.0619 17.078 30.6081C16.7686 30.2874 15.5203 28.2495 12.6384 23.361C10.4333 19.6206 8.58795 16.5176 8.53765 16.4657C8.42126 16.3455 8.42325 16.3496 12.4136 24.1549C14.9191 29.056 15.765 30.7888 15.765 31.0205C15.765 31.4919 15.6474 31.7396 15.1155 32.3882C14.2289 33.4695 13.8326 34.6845 13.5465 37.199C13.2256 40.0178 12.3237 42.009 9.82424 45.4168C8.36114 47.4117 8.1217 47.7773 7.75253 48.5814C7.28744 49.5938 7.15959 50.161 7.10777 51.4395C7.05303 52.7913 7.15971 53.6646 7.53753 54.957C7.86821 56.0886 8.2134 56.8357 9.09597 58.3302C9.85758 59.6197 10.2962 60.5782 10.2962 60.953C10.2962 61.2513 10.3483 61.2517 11.5285 60.9604C14.3529 60.2631 16.6464 59.0367 17.9362 57.5339C18.7345 56.6037 18.9219 56.09 18.9279 54.8153C18.9319 53.9816 18.9051 53.807 18.699 53.3274C18.3634 52.5467 17.7525 51.8976 16.4059 50.8913C14.6416 49.5727 13.888 48.5112 13.6798 47.0514C13.509 45.8535 13.7072 45.0084 14.6832 42.7721C15.6935 40.4572 15.9438 39.4708 16.1132 37.1375C16.2226 35.63 16.3741 35.0355 16.7702 34.5584C17.1834 34.0607 17.5554 33.8922 18.5779 33.7394C20.2451 33.4905 21.3066 33.019 22.1792 32.1399C22.9361 31.3774 23.2529 30.6426 23.3016 29.5365L23.3384 28.6981L22.9154 28.159C21.3836 26.2063 0.0948632 0.644043 0.000582617 0.644043C-0.0195485 0.644043 0.484537 1.33481 1.12074 2.17897ZM11.1561 52.969C11.5025 52.2986 11.3185 51.4364 10.7391 51.0153C10.1917 50.6174 9.34126 50.8048 9.34126 51.3234C9.34126 51.4816 9.42139 51.5968 9.60176 51.6983C9.90542 51.8692 9.92753 52.0612 9.68855 52.454C9.44654 52.8517 9.46607 53.2013 9.74365 53.4389C10.1911 53.8219 10.8244 53.6112 11.1561 52.969Z" fill="white"/>
<path fill-rule="evenodd" clip-rule="evenodd" d="M24.3905 34.1793C23.608 34.4421 22.8472 35.3489 22.6116 36.2998C22.4679 36.8798 22.5495 37.8974 22.7647 38.2116C23.1123 38.7191 23.4485 38.8529 24.3589 38.8458C26.1411 38.8323 27.6906 37.9966 27.8707 36.9518C28.0184 36.0956 27.3379 34.9087 26.4006 34.3878C25.9169 34.119 24.8882 34.0123 24.3905 34.1793ZM26.474 35.9604C26.7489 35.5335 26.6287 35.072 26.1613 34.76C25.2711 34.1658 23.9248 34.6575 23.9248 35.5769C23.9248 36.0346 24.6268 36.5338 25.2704 36.5338C25.6986 36.5338 26.2848 36.2546 26.474 35.9604Z" fill="white"/>
</svg>
